#N canvas 76 140 997 549 12;
#X text 109 193 3: Control parameters:;
#X floatatom 110 150 5 0 0 0 - - -;
#X obj 105 612 list trim;
#X obj 105 585 list prepend send;
#X obj 547 485 pack i f, f 13;
#X floatatom 551 262 5 0 0 0 - - -;
#X obj 547 458 i;
#X obj 547 412 t b f, f 13;
#X obj 111 486 pack i f, f 13;
#X floatatom 111 377 5 0 0 0 - - -;
#X obj 111 459 i;
#X obj 111 412 t b f, f 13;
#X obj 255 490 pack i f, f 13;
#X obj 255 463 i;
#X obj 255 412 t b f, f 13;
#X obj 405 488 pack i f, f 13;
#X floatatom 405 260 5 0 0 0 - - -;
#X obj 405 461 i;
#X obj 405 412 t b f, f 13;
#X text 109 129 2: Set source to control (0...16);
#X obj 105 708 outlet;
#X obj 103 74 inlet;
#X obj 172 74 inlet;
#X obj 254 74 inlet;
#X obj 403 74 inlet;
#X obj 549 77 inlet;
#X text 101 101 source;
#X text 207 101 azimuth;
#X text 321 101 elevation;
#X text 456 101 distance;
#X text 613 101 reverb;
#X floatatom 459 261 5 0 0 0 - - -;
#X floatatom 111 295 5 0 0 0 - - -;
#N canvas 460 154 945 659 scale 0;
#X obj 115 416 *;
#X obj 45 45 inlet;
#X obj 136 44 inlet;
#X obj 138 578 outlet;
#X text 44 21 Value;
#X text 103 21 Scaling Factor;
#X obj 98 297 scale;
#X obj 395 62 loadbang, f 9;
#X text 296 23 MaxDistance;
#X msg 307 47 20;
#X floatatom 305 87 5 0 0 0 - - -;
#X floatatom 303 190 5 0 0 0 - - -;
#X msg 305 150 0;
#X text 304 123 MinDistance (for both ranges);
#X obj 115 126 bang;
#X obj 223 45 inlet;
#X text 219 21 offset;
#X obj 202 509 +;
#X obj 187 410 bang;
#X obj 560 210 inlet;
#X text 558 187 Power (Curvature);
#X obj 384 220 bang;
#X connect 0 0 17 0;
#X connect 1 0 6 0;
#X connect 2 0 0 1;
#X connect 2 0 14 0;
#X connect 6 0 0 0;
#X connect 7 0 9 0;
#X connect 7 0 12 0;
#X connect 9 0 10 0;
#X connect 10 0 6 2;
#X connect 10 0 6 4;
#X connect 11 0 6 1;
#X connect 11 0 6 3;
#X connect 12 0 11 0;
#X connect 14 0 0 0;
#X connect 15 0 17 1;
#X connect 15 0 18 0;
#X connect 17 0 3 0;
#X connect 18 0 17 0;
#X connect 19 0 6 5;
#X connect 19 0 21 0;
#X connect 21 0 6 0;
#X restore 389 353 pd scale;
#X text 109 278 offset;
#X floatatom 111 261 5 0 0 0 - - -;
#X text 109 245 angle (radians);
#X floatatom 255 377 5 0 0 0 - - -;
#X text 391 243 distance;
#X floatatom 405 383 5 0 0 0 - - -;
#X text 107 215 SET AZIMUTH;
#X text 251 215 SET ELEVATION;
#X text 403 215 SET DISTANCE;
#X text 542 215 SET REVERB AMOUNT;
#X floatatom 254 295 5 0 0 0 - - -;
#X text 252 278 offset;
#X floatatom 254 261 5 0 0 0 - - -;
#X text 252 245 angle (radians);
#X text 109 364 Value;
#X text 254 363 Value;
#X text 404 365 Value;
#X text 547 248 Value;
#X obj 487 165 loadbang;
#X msg 460 228 1;
#X obj 79 520 oscformat -f if source azim;
#X obj 253 521 oscformat -f if source elev;
#X obj 425 521 oscformat -f if source dist;
#X obj 600 522 oscformat -f if source reverb;
#N canvas 679 40 639 801 angleoffset_az 0;
#X obj 35 58 inlet;
#X obj 173 60 inlet;
#X text 34 34 Angle;
#X text 174 36 Offset;
#X obj 100 129 +;
#X obj 105 174 + 3.14159;
#X obj 100 228 / 6.28319;
#X obj 94 276 wrap, f 5;
#X obj 113 327 * 6.28319;
#X obj 108 370 - 3.14159;
#X obj 88 451 outlet;
#X connect 0 0 4 0;
#X connect 1 0 4 1;
#X connect 4 0 5 0;
#X connect 5 0 6 0;
#X connect 6 0 7 0;
#X connect 7 0 8 0;
#X connect 8 0 9 0;
#X connect 9 0 10 0;
#X restore 110 332 pd angleoffset_az;
#N canvas 679 40 639 801 angleoffset_elv 0;
#X obj 35 58 inlet;
#X obj 173 60 inlet;
#X text 34 34 Angle;
#X text 174 36 Offset;
#X obj 100 129 +;
#X obj 94 276 wrap, f 5;
#X obj 88 451 outlet;
#X obj 100 228 / 3.14159;
#X obj 113 327 * 3.14159;
#X obj 105 174 + 1.5708;
#X obj 108 370 - 1.5708;
#X connect 0 0 4 0;
#X connect 1 0 4 1;
#X connect 4 0 9 0;
#X connect 5 0 8 0;
#X connect 7 0 5 0;
#X connect 8 0 10 0;
#X connect 9 0 7 0;
#X connect 10 0 6 0;
#X restore 254 334 pd angleoffset_elv;
#X floatatom 458 295 5 0 0 0 - - -;
#X text 456 278 offset;
#X floatatom 458 332 5 0 0 0 - - -;
#X text 456 315 Curvature;
#X text 457 244 scal. factor;
#X text 498 338 (works well with 1.03-1.06);
#X connect 1 0 10 1;
#X connect 1 0 13 1;
#X connect 1 0 17 1;
#X connect 1 0 6 1;
#X connect 2 0 20 0;
#X connect 3 0 2 0;
#X connect 4 0 57 0;
#X connect 5 0 7 0;
#X connect 6 0 4 0;
#X connect 7 0 6 0;
#X connect 7 1 4 1;
#X connect 8 0 54 0;
#X connect 9 0 11 0;
#X connect 10 0 8 0;
#X connect 11 0 10 0;
#X connect 11 1 8 1;
#X connect 12 0 55 0;
#X connect 13 0 12 0;
#X connect 14 0 13 0;
#X connect 14 1 12 1;
#X connect 15 0 56 0;
#X connect 16 0 33 0;
#X connect 17 0 15 0;
#X connect 18 0 17 0;
#X connect 18 1 15 1;
#X connect 21 0 1 0;
#X connect 22 0 35 0;
#X connect 23 0 46 0;
#X connect 24 0 16 0;
#X connect 25 0 5 0;
#X connect 31 0 33 1;
#X connect 32 0 58 1;
#X connect 33 0 39 0;
#X connect 35 0 58 0;
#X connect 37 0 14 0;
#X connect 39 0 18 0;
#X connect 44 0 59 1;
#X connect 46 0 59 0;
#X connect 52 0 53 0;
#X connect 53 0 31 0;
#X connect 53 0 62 0;
#X connect 54 0 3 0;
#X connect 55 0 3 0;
#X connect 56 0 3 0;
#X connect 57 0 3 0;
#X connect 58 0 9 0;
#X connect 59 0 37 0;
#X connect 60 0 33 2;
#X connect 62 0 33 3;
#X coords 0 -1 1 1 600 325 1 100 80;
