#N canvas 653 96 914 831 12;
#X floatatom 162 209 10 0 0 0 - - -;
#X floatatom 342 202 5 0 0 0 - - -;
#X floatatom 410 205 5 0 0 0 - - -;
#X floatatom 474 205 5 0 0 0 - - -;
#X floatatom 536 203 5 0 0 0 - - -;
#X floatatom 600 203 5 0 0 0 - - -;
#X floatatom 220 488 10 0 0 0 - - -;
#X obj 158 113 inlet;
#X obj 410 109 inlet;
#X obj 476 109 inlet;
#X obj 541 108 inlet;
#X obj 611 109 inlet;
#X obj 328 112 inlet;
#X obj 229 590 outlet;
#X text 153 85 INPUT;
#X text 319 77 in_low;
#X text 400 76 in_high;
#X text 468 75 out_low;
#X text 535 76 out_high;
#X text 608 74 power;
#X obj 215 366 expr if ( $f6 <=1 \, $f4 + ($f5-$f4)*($f1-$f2)/($f3-$f2)
\, $f4 + ($f5-$f4) * exp(-1*($f3-$f2)*log($f6)) * exp(($f1-$f2)*log($f6))*($f1-$f2)/($f3-$f2)
);
#X connect 0 0 20 0;
#X connect 1 0 20 1;
#X connect 2 0 20 2;
#X connect 3 0 20 3;
#X connect 4 0 20 4;
#X connect 5 0 20 5;
#X connect 6 0 13 0;
#X connect 7 0 0 0;
#X connect 8 0 2 0;
#X connect 9 0 3 0;
#X connect 10 0 4 0;
#X connect 11 0 5 0;
#X connect 12 0 1 0;
#X connect 20 0 6 0;
#X coords 0 -1 1 1 85 60 1 100 100;
