#N canvas 394 90 1219 831 12;
#X floatatom 162 201 10 0 0 0 - - -;
#X floatatom 342 202 5 0 0 0 - - -;
#X floatatom 410 205 5 0 0 0 - - -;
#X floatatom 474 205 5 0 0 0 - - -;
#X floatatom 536 203 5 0 0 0 - - -;
#X floatatom 600 203 5 0 0 0 - - -;
#X obj 653 378 -;
#X obj 215 366 expr if ( $f6 <=1 \, $f4 + ($f5-$f4)*($f1-$f2)/($f3-$f2)
\, $f4 + ($f5-$f4) * ( ($f5 - $f4) * exp(-1*($f3-$f2)*log($f6)) * exp($f1*log($f6)))
);
#X obj 672 557 expr if ($f1 >= 0 \, $f2 \, $f3);
#X obj 713 368 expr if ( $f6 <=1 \, $f4 + ($f5-$f4)*($f1-$f2)/($f3-$f2)
\, $f4 - ($f5-$f4) * ( ($f5 - $f4) * exp(-1*($f3-$f2)*log($f6)) * exp($f1*log($f6)))
);
#X floatatom 215 434 5 0 0 0 - - -;
#X obj 143 513 bang;
#X floatatom 747 430 5 0 0 0 - - -;
#X obj 250 637 expr if($f1 == $f2 \, $f4 \, if ($f1 == $f3 \, $f5 \,
$f6));
#X floatatom 255 718 5 0 0 0 - - -;
#X obj 158 113 inlet;
#X obj 410 109 inlet;
#X obj 476 109 inlet;
#X obj 541 108 inlet;
#X obj 611 109 inlet;
#X obj 328 112 inlet;
#X obj 252 779 outlet;
#X text 153 85 INPUT;
#X text 319 77 in_low;
#X text 400 76 in_high;
#X text 468 75 out_low;
#X text 535 76 out_high;
#X text 608 74 power;
#X connect 0 0 7 0;
#X connect 0 0 9 0;
#X connect 0 0 11 0;
#X connect 0 0 13 0;
#X connect 1 0 7 1;
#X connect 1 0 9 1;
#X connect 1 0 13 1;
#X connect 2 0 7 2;
#X connect 2 0 9 2;
#X connect 2 0 13 2;
#X connect 3 0 6 1;
#X connect 3 0 7 3;
#X connect 3 0 9 3;
#X connect 3 0 13 3;
#X connect 4 0 6 0;
#X connect 4 0 7 4;
#X connect 4 0 9 4;
#X connect 4 0 13 4;
#X connect 5 0 7 5;
#X connect 5 0 9 5;
#X connect 6 0 8 0;
#X connect 7 0 8 1;
#X connect 7 0 10 0;
#X connect 8 0 13 5;
#X connect 9 0 8 2;
#X connect 9 0 12 0;
#X connect 11 0 8 0;
#X connect 13 0 14 0;
#X connect 14 0 21 0;
#X connect 15 0 0 0;
#X connect 16 0 2 0;
#X connect 17 0 3 0;
#X connect 18 0 4 0;
#X connect 19 0 5 0;
#X connect 20 0 1 0;
#X coords 0 -1 1 1 85 60 1 100 100;
