#N canvas 472 97 1928 1464 10;
#X text 8 7 Example patch for controlling spatial properties of a sound
on the SPRAWL server.;
#X obj 7 967 netsend -u -b;
#X msg 327 951 disconnect;
#X text 314 906 1: connect;
#N canvas 18 118 450 300 default 0;
#X obj 128 259 list trim;
#X obj 128 232 list prepend send;
#X obj 128 282 outlet;
#X text 108 112 all sources default;
#X obj 146 139 bng 33 250 50 0 empty empty empty 17 7 0 10 -258113
-1 -1;
#X obj 128 199 oscformat default_source_positions;
#X connect 0 0 2 0;
#X connect 1 0 0 0;
#X connect 4 0 5 0;
#X connect 5 0 1 0;
#X coords 0 -1 1 1 133 88 2 100 100;
#X restore 1293 867 pd default;
#X obj 195 37 o.display 716 62;
#X obj 11 35 netreceive -u -b 55011;
#N canvas 0 23 450 300 bytes2bundle 0;
#X obj 52 27 inlet;
#X obj 52 261 outlet;
#X obj 52 65 o.pack /list;
#X obj 52 101 o.expr.codebox 199 23 binhex b#2F626E646C203D2062756E646C65282F
b#6C69737429;
#X obj 52 156 o.route /bndl;
#X connect 0 0 2 0;
#X connect 2 0 3 0;
#X connect 3 0 4 0;
#X connect 4 0 1 0;
#X restore 11 58 pd bytes2bundle;
#X obj 146 161 unpack f f f;
#X msg 318 924 connect 195.37.74.59 57120;
#X obj 754 134 o.route /points/right/pos_aed;
#X obj 754 155 unpack f f f;
#X obj 146 140 o.route /points/left/pos_aed;
#X obj 14 199 positionToOSC, f 28;
#X obj 652 196 positionToOSC, f 28;
#X obj 1125 128 loadbang;
#X obj 1243 132 loadbang;
#X text 974 79 NOTE on params: scaling_factor=6 and curvature=1.03
worked well. Reverb=1 improved the perception of source position considerably.
;
#X obj 18 579 positionToOSC, f 28;
#X obj 647 581 positionToOSC, f 28;
#X obj 485 142 loadbang;
#X obj 596 143 loadbang;
#X obj 1112 525 loadbang;
#X obj 1230 529 loadbang;
#X obj 480 529 loadbang;
#X obj 598 528 loadbang;
#X obj 17 141 loadbang;
#X obj 666 141 loadbang;
#X obj 33 533 loadbang;
#X obj 671 533 loadbang;
#X msg 597 169 0.5;
#X msg 1244 158 0.5;
#X msg 599 554 0.5;
#X msg 1231 555 0.5;
#X msg 18 167 4;
#X msg 667 167 5;
#X msg 34 559 6;
#X msg 672 559 7;
#X msg 485 171 1 0 4 3 1.03;
#X msg 480 553 0 0 4 5 1.03;
#X msg 1125 157 -1 0 4 3 1.03;
#X msg 1112 554 0 0 4 5 1.03;
#X connect 2 0 1 0;
#X connect 4 0 1 0;
#X connect 5 0 12 0;
#X connect 5 0 10 0;
#X connect 6 0 7 0;
#X connect 7 0 5 0;
#X connect 8 0 13 1;
#X connect 8 0 18 1;
#X connect 8 1 13 2;
#X connect 8 1 18 2;
#X connect 8 2 13 3;
#X connect 8 2 18 3;
#X connect 9 0 1 0;
#X connect 10 0 11 0;
#X connect 11 0 14 1;
#X connect 11 0 19 1;
#X connect 11 1 14 2;
#X connect 11 1 19 2;
#X connect 11 2 14 3;
#X connect 11 2 19 3;
#X connect 12 0 8 0;
#X connect 13 0 1 0;
#X connect 14 0 1 0;
#X connect 15 0 40 0;
#X connect 16 0 31 0;
#X connect 18 0 1 0;
#X connect 19 0 1 0;
#X connect 20 0 38 0;
#X connect 21 0 30 0;
#X connect 22 0 41 0;
#X connect 23 0 33 0;
#X connect 24 0 39 0;
#X connect 25 0 32 0;
#X connect 26 0 34 0;
#X connect 27 0 35 0;
#X connect 28 0 36 0;
#X connect 29 0 37 0;
#X connect 30 0 13 5;
#X connect 31 0 14 5;
#X connect 32 0 18 5;
#X connect 33 0 19 5;
#X connect 34 0 13 0;
#X connect 35 0 14 0;
#X connect 36 0 18 0;
#X connect 37 0 19 0;
#X connect 38 0 13 4;
#X connect 39 0 18 4;
#X connect 40 0 14 4;
#X connect 41 0 19 4;
