#N canvas 422 80 1331 579 10;
#X text 8 7 Example patch for controlling spatial properties of a sound
on the SPRAWL server.;
#X obj 6 526 netsend -u -b;
#X msg 40 409 disconnect;
#X text 27 364 1: connect;
#N canvas 117 86 1302 626 sub1 0;
#X text 107 215 Set azimuth;
#X text 542 215 Set reverb amount;
#X text 403 215 Set distance;
#X text 251 215 Set elevation;
#X text 109 193 3: Control parameters:;
#X floatatom 110 150 5 0 0 0 - - -;
#X obj 325 444 list trim;
#X obj 325 417 list prepend send;
#X obj 111 366 oscformat source azim;
#X obj 255 365 oscformat source elev;
#X obj 405 365 oscformat source dist;
#X obj 547 365 oscformat source reverb;
#X obj 547 329 pack i f, f 13;
#X floatatom 547 234 5 0 0 0 - - -;
#X obj 547 302 i;
#X obj 547 256 t b f, f 13;
#X obj 111 330 pack i f, f 13;
#X floatatom 111 234 5 0 0 0 - - -;
#X obj 111 303 i;
#X obj 111 256 t b f, f 13;
#X obj 255 334 pack i f, f 13;
#X floatatom 255 234 5 0 0 0 - - -;
#X obj 255 307 i;
#X obj 255 256 t b f, f 13;
#X obj 405 332 pack i f, f 13;
#X floatatom 405 234 5 0 0 0 - - -;
#X obj 405 305 i;
#X obj 405 256 t b f, f 13;
#X text 109 129 2: Set source to control (0...16);
#X obj 325 467 outlet;
#X obj 103 74 inlet;
#X obj 172 74 inlet;
#X obj 254 74 inlet;
#X obj 403 74 inlet;
#X obj 545 74 inlet;
#X text 101 101 source;
#X text 207 101 azimuth;
#X text 321 101 elevation;
#X text 456 101 distance;
#X text 613 101 reverb;
#X connect 5 0 18 1;
#X connect 5 0 22 1;
#X connect 5 0 26 1;
#X connect 5 0 14 1;
#X connect 6 0 29 0;
#X connect 7 0 6 0;
#X connect 8 0 7 0;
#X connect 9 0 7 0;
#X connect 10 0 7 0;
#X connect 11 0 7 0;
#X connect 12 0 11 0;
#X connect 13 0 15 0;
#X connect 14 0 12 0;
#X connect 15 0 14 0;
#X connect 15 1 12 1;
#X connect 16 0 8 0;
#X connect 17 0 19 0;
#X connect 18 0 16 0;
#X connect 19 0 18 0;
#X connect 19 1 16 1;
#X connect 20 0 9 0;
#X connect 21 0 23 0;
#X connect 22 0 20 0;
#X connect 23 0 22 0;
#X connect 23 1 20 1;
#X connect 24 0 10 0;
#X connect 25 0 27 0;
#X connect 26 0 24 0;
#X connect 27 0 26 0;
#X connect 27 1 24 1;
#X connect 30 0 5 0;
#X connect 31 0 17 0;
#X connect 32 0 21 0;
#X connect 33 0 25 0;
#X connect 34 0 13 0;
#X coords 0 -1 1 1 555 155 2 100 100;
#X restore 15 186 pd sub1;
#N canvas 18 118 450 300 default 0;
#X obj 128 259 list trim;
#X obj 128 232 list prepend send;
#X obj 128 282 outlet;
#X text 108 112 all sources default;
#X obj 146 139 bng 33 250 50 0 empty empty empty 17 7 0 10 -258113
-1 -1;
#X obj 128 199 oscformat default_source_positions;
#X connect 0 0 2 0;
#X connect 1 0 0 0;
#X connect 4 0 5 0;
#X connect 5 0 1 0;
#X coords 0 -1 1 1 133 88 2 100 100;
#X restore 1039 352 pd default;
#X obj 12 83 o.display 556 44;
#X obj 11 35 netreceive -u -b 55011;
#N canvas 0 23 450 300 bytes2bundle 0;
#X obj 52 27 inlet;
#X obj 52 261 outlet;
#X obj 52 65 o.pack /list;
#X obj 52 101 o.expr.codebox 199 23 binhex b#2F626E646C203D2062756E646C65282F
b#6C69737429;
#X obj 52 156 o.route /bndl;
#X connect 0 0 2 0;
#X connect 2 0 3 0;
#X connect 3 0 4 0;
#X connect 4 0 1 0;
#X restore 11 58 pd bytes2bundle;
#X obj 146 161 unpack f f f;
#X msg 31 382 connect 195.37.74.59 57120;
#X obj 754 134 o.route /points/right/pos_aed;
#X obj 754 155 unpack f f f;
#X obj 146 140 o.route /points/left/pos_aed;
#N canvas 117 86 1302 626 sub1 0;
#X text 107 215 Set azimuth;
#X text 542 215 Set reverb amount;
#X text 403 215 Set distance;
#X text 251 215 Set elevation;
#X text 109 193 3: Control parameters:;
#X floatatom 110 150 5 0 0 0 - - -;
#X obj 325 444 list trim;
#X obj 325 417 list prepend send;
#X obj 111 366 oscformat source azim;
#X obj 255 365 oscformat source elev;
#X obj 405 365 oscformat source dist;
#X obj 547 365 oscformat source reverb;
#X obj 547 329 pack i f, f 13;
#X floatatom 547 234 5 0 0 0 - - -;
#X obj 547 302 i;
#X obj 547 256 t b f, f 13;
#X obj 111 330 pack i f, f 13;
#X floatatom 111 234 5 0 0 0 - - -;
#X obj 111 303 i;
#X obj 111 256 t b f, f 13;
#X obj 255 334 pack i f, f 13;
#X floatatom 255 234 5 0 0 0 - - -;
#X obj 255 307 i;
#X obj 255 256 t b f, f 13;
#X obj 405 332 pack i f, f 13;
#X floatatom 405 234 5 0 0 0 - - -;
#X obj 405 305 i;
#X obj 405 256 t b f, f 13;
#X text 109 129 2: Set source to control (0...16);
#X obj 325 467 outlet;
#X obj 103 74 inlet;
#X obj 172 74 inlet;
#X obj 254 74 inlet;
#X obj 403 74 inlet;
#X obj 545 74 inlet;
#X text 101 101 source;
#X text 207 101 azimuth;
#X text 321 101 elevation;
#X text 456 101 distance;
#X text 613 101 reverb;
#X connect 5 0 18 1;
#X connect 5 0 22 1;
#X connect 5 0 26 1;
#X connect 5 0 14 1;
#X connect 6 0 29 0;
#X connect 7 0 6 0;
#X connect 8 0 7 0;
#X connect 9 0 7 0;
#X connect 10 0 7 0;
#X connect 11 0 7 0;
#X connect 12 0 11 0;
#X connect 13 0 15 0;
#X connect 14 0 12 0;
#X connect 15 0 14 0;
#X connect 15 1 12 1;
#X connect 16 0 8 0;
#X connect 17 0 19 0;
#X connect 18 0 16 0;
#X connect 19 0 18 0;
#X connect 19 1 16 1;
#X connect 20 0 9 0;
#X connect 21 0 23 0;
#X connect 22 0 20 0;
#X connect 23 0 22 0;
#X connect 23 1 20 1;
#X connect 24 0 10 0;
#X connect 25 0 27 0;
#X connect 26 0 24 0;
#X connect 27 0 26 0;
#X connect 27 1 24 1;
#X connect 30 0 5 0;
#X connect 31 0 17 0;
#X connect 32 0 21 0;
#X connect 33 0 25 0;
#X connect 34 0 13 0;
#X coords 0 -1 1 1 555 155 2 100 100;
#X restore 617 187 pd sub1;
#X connect 2 0 1 0;
#X connect 4 0 1 0;
#X connect 5 0 1 0;
#X connect 6 0 13 0;
#X connect 6 0 11 0;
#X connect 7 0 8 0;
#X connect 8 0 6 0;
#X connect 9 0 4 1;
#X connect 9 1 4 2;
#X connect 9 2 4 3;
#X connect 10 0 1 0;
#X connect 11 0 12 0;
#X connect 12 0 14 1;
#X connect 12 1 14 2;
#X connect 12 2 14 3;
#X connect 13 0 9 0;
#X connect 14 0 1 0;
