#N canvas -9 -9 1600 796 10;
#X text 8 7 Example patch for controlling spatial properties of a sound
on the SPRAWL server.;
#X obj 6 698 netsend -u -b;
#X msg 40 581 disconnect;
#X text 27 536 1: connect;
#N canvas 18 118 450 300 default 0;
#X obj 128 259 list trim;
#X obj 128 232 list prepend send;
#X obj 128 282 outlet;
#X text 108 112 all sources default;
#X obj 146 139 bng 33 250 50 0 empty empty empty 17 7 0 10 -258113
-1 -1;
#X obj 128 199 oscformat default_source_positions;
#X connect 0 0 2 0;
#X connect 1 0 0 0;
#X connect 4 0 5 0;
#X connect 5 0 1 0;
#X coords 0 -1 1 1 133 88 2 100 100;
#X restore 1039 524 pd default;
#X obj 12 83 o.display 556 34;
#X obj 11 35 netreceive -u -b 55011;
#N canvas 0 23 450 300 bytes2bundle 0;
#X obj 52 27 inlet;
#X obj 52 261 outlet;
#X obj 52 65 o.pack /list;
#X obj 52 101 o.expr.codebox 199 23 binhex b#2F626E646C203D2062756E646C65282F
b#6C69737429;
#X obj 52 156 o.route /bndl;
#X connect 0 0 2 0;
#X connect 2 0 3 0;
#X connect 3 0 4 0;
#X connect 4 0 1 0;
#X restore 11 58 pd bytes2bundle;
#X obj 146 161 unpack f f f;
#X msg 31 554 connect 195.37.74.59 57120;
#X obj 754 134 o.route /points/right/pos_aed;
#X obj 754 155 unpack f f f;
#X obj 146 140 o.route /points/left/pos_aed;
#X obj 27 195 positionToOSC, f 28;
#X obj 653 197 positionToOSC, f 28;
#X connect 2 0 1 0;
#X connect 4 0 1 0;
#X connect 5 0 12 0;
#X connect 5 0 10 0;
#X connect 6 0 7 0;
#X connect 7 0 5 0;
#X connect 8 0 13 1;
#X connect 8 1 13 2;
#X connect 8 2 13 3;
#X connect 9 0 1 0;
#X connect 10 0 11 0;
#X connect 11 0 14 1;
#X connect 11 1 14 2;
#X connect 11 2 14 3;
#X connect 12 0 8 0;
#X connect 13 0 9 0;
